<?xml version="1.0" encoding="UTF-8"?>
<svg xmlns="http://www.w3.org/2000/svg" xmlns:xlink="http://www.w3.org/1999/xlink" width="32pt" height="32pt" viewBox="0 0 32 32" version="1.1">
<g id="surface1">
<path style=" stroke:none;fill-rule:evenodd;fill:rgb(70.588235%,70.588235%,70.588235%);fill-opacity:1;" d="M 13.039062 10.273438 C 2.453125 11.84375 -3 19.035156 1.835938 25.050781 C 4.160156 27.945312 8.800781 30.097656 13.886719 30.640625 C 14.144531 30.667969 14.398438 30.695312 14.457031 30.703125 L 14.5625 30.714844 L 14.550781 29.191406 L 14.542969 27.667969 L 13.921875 27.566406 C 6.503906 26.335938 2.800781 21.332031 6.1875 17.105469 C 7.59375 15.347656 10.480469 13.835938 13.398438 13.324219 L 13.726562 13.269531 L 13.726562 11.722656 C 13.726562 10.503906 13.71875 10.175781 13.6875 10.179688 C 13.664062 10.179688 13.375 10.222656 13.039062 10.273438 M 20.191406 11.722656 L 20.191406 13.269531 L 20.519531 13.328125 C 21.957031 13.578125 24.460938 14.464844 25.097656 14.949219 C 25.144531 14.988281 25.007812 15.074219 23.871094 15.710938 C 22.550781 16.449219 22.53125 16.460938 22.679688 16.492188 C 22.726562 16.503906 24.828125 16.957031 27.34375 17.503906 C 29.859375 18.046875 31.921875 18.488281 31.925781 18.484375 C 31.9375 18.472656 31.308594 11.859375 31.277344 11.6875 C 31.253906 11.550781 31.367188 11.5 30.015625 12.257812 C 29.355469 12.632812 28.800781 12.9375 28.785156 12.9375 C 28.765625 12.9375 28.609375 12.851562 28.433594 12.753906 C 26.347656 11.558594 23.585938 10.652344 20.878906 10.273438 C 20.617188 10.238281 20.351562 10.199219 20.296875 10.191406 L 20.191406 10.171875 L 20.191406 11.722656 "/>
<path style=" stroke:none;fill-rule:evenodd;fill:rgb(95.686275%,58.039216%,10.980392%);fill-opacity:1;" d="M 16.960938 2.460938 L 14.542969 3.636719 L 14.542969 17.144531 C 14.542969 24.574219 14.554688 30.660156 14.566406 30.671875 C 14.585938 30.691406 19.296875 28.511719 19.367188 28.449219 C 19.382812 28.4375 19.386719 22.320312 19.382812 14.855469 L 19.375 1.285156 L 16.960938 2.460938 "/>
</g>
</svg>
